
<svg width="560px" height="327px" viewBox="0 0 560 327" version="1.1" xmlns="http://www.w3.org/2000/svg" xmlns:xlink="http://www.w3.org/1999/xlink">
    <g id="Page-1" stroke="none" stroke-width="1" fill="none" fill-rule="evenodd">
        <g id="Commercial-Copy" transform="translate(-130.000000, -254.000000)" fill-rule="nonzero">
            <g id="undraw_open_source_1qxw" transform="translate(130.000000, 254.000000)">
                <circle id="Oval" fill="#F2F2F2" cx="180.858739" cy="159.068093" r="159.068093"></circle>
                <path d="M560,282.177572 C559.99914,282.564344 559.968192,282.950464 559.907437,283.332436 C556.017866,307.170568 432.185992,326.302086 280,326.302086 C127.814008,326.302086 3.98210117,307.170568 0.0926070039,283.332436 C0.0318045732,282.950469 0.000841957322,282.564347 0,282.177572 C0,282.068623 0,281.954226 0.0108949416,281.845276 C0.0108949416,281.785327 0.0163424125,281.730879 0.0163424125,281.670957 C0.0208419928,281.649475 0.0226716603,281.627519 0.0217898833,281.605588 C0.0435797665,281.360451 0.0762645914,281.12621 0.119844358,280.886521 C1.89571984,271.140996 23.7346304,262.185354 59.355642,255.011035 C88.488716,249.144109 126.844358,244.464732 170.990661,241.523097 C204.492607,239.289634 241.328405,238.053058 280,238.053058 C311.115953,238.053058 341.044358,238.853837 369.000778,240.324654 L369.011673,240.324654 C374.862257,240.63516 380.625681,240.974719 386.301946,241.343331 C425.158755,243.860062 459.641245,247.711424 487.423346,252.532436 C504.512062,255.501307 519.073152,258.840607 530.561835,262.457728 L530.567282,262.457728 C548.249773,268.03049 558.676286,274.278739 559.880156,280.886521 C559.923735,281.12621 559.95636,281.360451 559.978172,281.605588 C559.977274,281.627519 559.979104,281.649477 559.983619,281.670957 C559.983619,281.730879 559.989067,281.785354 559.989067,281.845276 C560,281.954209 560,282.068617 560,282.177572 Z" id="Path" fill="#3F3D56"></path>
                <ellipse id="Oval" fill="#000000" opacity="0.1" cx="272.918288" cy="311.59392" rx="89.8832685" ry="13.07393"></ellipse>
                <path d="M530.561868,262.457722 C527.418677,263.356555 523.877821,264.190018 519.993829,264.952664 C503.999995,268.101302 482.177459,270.035154 458.148693,270.035154 C431.303556,270.035154 407.242078,267.621925 390.937798,263.803247 C377.40628,260.632852 369.213284,256.509111 369.213284,251.982263 C369.213284,248.005582 375.554113,244.323119 386.302,241.343353 C425.158809,243.860084 459.6413,247.711446 487.423401,252.532458 C504.512062,255.501291 519.073152,258.840596 530.561868,262.457722 Z" id="Path" fill="#000000" opacity="0.1"></path>
                <path d="M289.805447,256.438272 C289.805447,264.680296 238.098054,271.364342 174.319066,271.364342 C110.540078,271.364342 58.8326848,264.680296 58.8326848,256.438272 C58.8464316,255.918176 59.0301094,255.416889 59.355642,255.011035 C88.488716,249.144109 126.844358,244.464732 170.990661,241.523097 C172.096498,241.51765 173.205966,241.515834 174.319066,241.51765 C238.098054,241.517644 289.805447,248.196249 289.805447,256.438272 Z" id="Path" fill="#000000" opacity="0.1"></path>
                <rect id="Rectangle" fill="#1B7DF9" x="226.871858" y="182.476616" width="22.7079946" height="73.3143883"></rect>
                <rect id="Rectangle" fill="#1B7DF9" x="152.259871" y="148.090224" width="22.7079946" height="107.700785"></rect>
                <rect id="Rectangle" fill="#1B7DF9" x="78.2966833" y="148.090224" width="22.7079946" height="107.700785"></rect>
                <rect id="Rectangle" fill="#1B7DF9" x="115.278277" y="148.090224" width="22.7079946" height="73.3143883"></rect>
                <rect id="Rectangle" fill="#1B7DF9" x="189.241465" y="148.090224" width="22.7079946" height="21.4103961"></rect>
                <rect id="Rectangle" fill="#8A8B8C" x="189.241465" y="182.476616" width="22.7079946" height="73.3143883"></rect>
                <rect id="Rectangle" fill="#1B7DF9" x="226.871858" y="148.090224" width="59.6895883" height="21.4103961"></rect>
                <path d="M444.002646,141.650044 C459.527295,141.650044 472.741719,147.068322 483.645918,157.904878 C488.781514,163.000187 492.827713,169.086305 495.538732,175.793533 C500.941349,189.515344 500.959933,204.771762 495.590761,218.506694 C492.920788,225.1364 488.885904,231.130225 483.748254,236.098756 C478.465657,241.361024 472.202518,245.536449 465.313272,248.388741 C458.562985,251.205603 451.320564,252.654087 444.006121,252.650172 C436.774399,252.671955 429.612137,251.239267 422.945257,248.437305 C409.364224,242.655878 398.548822,231.841088 392.766628,218.260381 C387.199742,204.7172 387.217197,189.521584 392.815181,175.991227 C395.650769,169.178369 399.811135,162.996481 405.054864,157.804285 C415.626059,147.037105 428.608653,141.652358 444.002646,141.650044 Z M444.203832,151.661025 C431.518405,151.661025 420.847196,156.087801 412.190206,164.941354 C407.921576,169.23048 404.507727,174.292393 402.130661,179.857226 C397.438483,190.874656 397.438483,203.328421 402.130661,214.345851 C406.917874,225.464569 415.811953,234.306457 426.958654,239.02815 C438.021735,243.602957 450.450891,243.585485 461.501066,238.979591 C467.129069,236.634604 472.258037,233.237463 476.612928,228.970343 C485.267608,220.513388 489.594369,209.908087 489.59321,197.154439 C489.625025,191.175367 488.479954,185.248473 486.223258,179.711539 C483.969388,174.214561 480.634706,169.226105 476.416939,165.041953 C467.491686,156.121912 456.753984,151.661602 444.203832,151.661025 Z M443.508337,187.936082 L436.072948,191.80207 C435.472955,190.376279 434.45375,189.16654 433.150478,188.333262 C432.180445,187.729094 431.06987,187.387791 429.927956,187.342912 C424.974501,187.342912 422.496618,190.613419 422.494304,197.154433 C422.494304,200.127205 423.121579,202.505074 424.376128,204.288038 C425.631835,206.072739 427.482444,206.965377 429.927956,206.965955 C433.166092,206.965955 435.446256,205.380133 436.768448,202.208488 L443.605471,205.677296 C440.760224,211.078403 435.141029,214.442561 429.036477,214.399612 C424.081283,214.399612 420.083482,212.879695 417.043075,209.839861 C414.004399,206.801185 412.485061,202.573287 412.485061,197.156166 C412.485061,191.8697 414.021165,187.674176 417.093371,184.569594 C420.165,181.465008 424.047175,179.912139 428.739895,179.910988 C435.613332,179.907527 440.536146,182.582558 443.508337,187.936082 Z M475.52023,187.936082 L468.185434,191.80207 C467.585406,190.37578 466.565477,189.165899 465.261232,188.333262 C464.259869,187.71955 463.115518,187.378156 461.941581,187.342912 C456.986395,187.342912 454.507934,190.613419 454.506198,197.154433 C454.506198,200.127205 455.13405,202.505074 456.389753,204.288038 C457.643728,206.072739 459.494338,206.965377 461.941581,206.965955 C465.176246,206.965955 467.454676,205.380133 468.776872,202.208488 L475.714487,205.677296 C474.267285,208.312888 472.148382,210.518557 469.57296,212.070311 C467.035253,213.612807 464.11862,214.419279 461.148963,214.399612 C456.126134,214.399612 452.113304,212.879695 449.110472,209.839861 C446.099546,206.801185 444.595238,202.573287 444.597548,197.156166 C444.597548,191.8697 446.13423,187.674176 449.207595,184.569594 C452.277496,181.465008 456.158515,179.912139 460.850654,179.910988 C467.722352,179.907527 472.612211,182.582558 475.52023,187.936082 Z" id="Shape" fill="#1B7DF9"></path>
                <path d="M410.421647,278.003802 C410.421647,304.553402 373.414662,296.341367 328.103346,296.341367 C282.79203,296.341367 246.334854,304.553429 246.334854,278.003802 C246.334854,251.454174 283.336799,245.679888 328.648093,245.679888 C373.959388,245.679888 410.421647,251.454202 410.421647,278.003802 Z" id="Path" fill="#000000" opacity="0.1"></path>
                <path d="M410.421647,271.466837 C410.421647,298.016437 373.414662,289.804402 328.103346,289.804402 C282.79203,289.804402 246.334854,298.016464 246.334854,271.466837 C246.334854,244.917209 283.336799,239.142923 328.648093,239.142923 C373.959388,239.142923 410.421647,244.917237 410.421647,271.466837 Z" id="Path" fill="#3F3D56"></path>
                <path d="M402.863107,223.804975 L404.733545,231.520528 C404.754393,231.606537 404.751153,231.696627 404.724181,231.780917 L396.239489,258.295582 C396.170252,258.511956 395.959303,258.650589 395.733218,258.628298 C395.507133,258.606007 395.327321,258.428846 395.301674,258.203117 L394.127913,247.874047 C394.120116,247.805442 394.127151,247.735962 394.148542,247.670312 L401.936557,223.769169 C402.003327,223.564269 402.198019,223.428607 402.413363,223.436929 C402.628707,223.44525 402.812349,223.595533 402.863107,223.804975 L402.863107,223.804975 Z" id="Path" fill="#2F2E41"></path>
                <polygon id="Path" fill="#F2F2F2" points="402.174786 224.456498 403.902179 231.076265 396.418444 255.25323 394.691595 247.770039"></polygon>
                <path d="M364.470618,260.434052 C364.75844,261.297514 394.403925,260.146235 394.691726,259.858412 C394.942668,259.497975 395.154904,259.112082 395.324913,258.707133 C395.595483,258.131493 395.843005,257.555854 395.843005,257.555854 L394.691726,248.236239 L365.334086,247.194328 C365.334086,247.194328 364.600126,255.092115 364.450457,258.707133 C364.399457,259.282 364.406211,259.860532 364.470618,260.434052 L364.470618,260.434052 Z" id="Path" fill="#2F2E41"></path>
                <polygon id="Path" fill="#000000" opacity="0.1" points="390.950272 249.496887 391.525525 257.555875 378.573619 257.555875 378.573619 249.496887"></polygon>
                <polygon id="Path" fill="#000000" opacity="0.1" points="374.256498 252.08716 374.333852 252.071907 373.968872 255.540856 366.773307 255.540856 366.773307 252.08716"></polygon>
                <path d="M364.470618,260.434052 C364.75844,261.297514 394.403925,260.146235 394.691726,259.858412 C394.942668,259.497975 395.154904,259.112082 395.324913,258.707133 L364.450451,258.707133 C364.399453,259.282001 364.406209,259.860532 364.470618,260.434052 Z" id="Path" fill="#000000" opacity="0.1"></path>
                <path d="M318.707227,230.212944 L326.766188,230.212944 L346.625771,222.441805 C346.625771,222.441805 360.728957,216.685403 359.577678,227.622568 C358.426398,238.559733 356.411673,253.238553 356.411673,253.238553 C356.411673,253.238553 350.079631,250.360349 346.625788,251.223812 C343.171944,252.087274 345.474508,233.666788 345.474508,233.666788 C345.474508,233.666788 317.268142,247.194328 314.677777,245.467409 C312.087412,243.74049 311.511756,231.652046 311.511756,231.652046 L318.707227,230.212944 Z" id="Path" fill="#2F2E41"></path>
                <path d="M318.707227,230.212944 L326.766188,230.212944 L346.625771,222.441805 C346.625771,222.441805 360.728957,216.685403 359.577678,227.622568 C358.426398,238.559733 356.411673,253.238553 356.411673,253.238553 C356.411673,253.238553 350.079631,250.360349 346.625788,251.223812 C343.171944,252.087274 345.474508,233.666788 345.474508,233.666788 C345.474508,233.666788 317.268142,247.194328 314.677777,245.467409 C312.087412,243.74049 311.511756,231.652046 311.511756,231.652046 L318.707227,230.212944 Z" id="Path" fill="#000000" opacity="0.1"></path>
                <path d="M331.40417,204.975177 L341.157191,218.987962 L363.894978,237.984088 C363.894978,237.984088 384.90584,242.877006 382.027642,246.330872 C379.149444,249.784737 361.592419,242.877028 361.592419,242.877028 C361.592419,242.877028 335.400778,223.880907 334.537354,222.441805 C333.67393,221.002704 324.175829,207.475163 324.175829,207.475163 L331.40417,204.975177 Z" id="Path" fill="#A0616A"></path>
                <path d="M331.40417,204.975177 L341.157191,218.987962 L363.894978,237.984088 C363.894978,237.984088 384.90584,242.877006 382.027642,246.330872 C379.149444,249.784737 361.592419,242.877028 361.592419,242.877028 C361.592419,242.877028 335.400778,223.880907 334.537354,222.441805 C333.67393,221.002704 324.175829,207.475163 324.175829,207.475163 L331.40417,204.975177 Z" id="Path" fill="#000000" opacity="0.1"></path>
                <circle id="Oval" fill="#A0616A" cx="329.932209" cy="176.678415" r="12.9519012"></circle>
                <path d="M329.068747,188.191214 C329.068747,188.191214 324.751447,195.674535 323.88799,199.704019 C323.024533,203.733502 310.936083,191.645058 310.936083,191.645058 L309.353075,187.471668 C309.353075,187.471668 320.721947,182.146995 319.858523,177.829694 C318.995099,173.512394 329.068747,188.191214 329.068747,188.191214 Z" id="Path" fill="#A0616A"></path>
                <path d="M325.614909,193.659799 L331.946951,206.036061 C331.946951,206.036061 330.507849,212.08028 328.20529,212.65592 C325.902732,213.23156 316.116846,205.172598 316.116846,205.172598 L325.614909,193.659799 Z" id="Path" fill="#D0CDE1"></path>
                <path d="M331.371311,210.641184 L343.171933,226.183466 L371.3783,247.194328 C371.3783,247.194328 391.813522,251.511634 387.208405,254.67765 C382.603287,257.843665 369.36358,251.799451 369.36358,251.799451 C369.36358,251.799451 340.869396,236.544986 334.825171,230.212944 C328.780946,223.880902 317.55597,213.231543 317.55597,213.231543 L331.371311,210.641184 Z" id="Path" fill="#A0616A"></path>
                <path d="M315.541206,234.818067 L318.995044,240.286647 L339.607904,233.801705 C344.127106,232.340987 349.059598,232.936075 353.101725,235.429687 C356.699474,237.696271 359.002038,241.29402 353.821275,246.618689 C343.45975,257.268031 336.552068,251.511607 336.552068,251.511607 C336.552068,251.511607 301.725843,267.917346 295.96944,259.858385 C290.213038,251.799424 289.925221,247.769941 289.925221,247.769941 C289.925221,247.769941 312.087363,233.954605 315.541206,234.818067 Z" id="Path" fill="#2F2E41"></path>
                <path d="M358.714216,253.814193 C358.714216,253.814193 367.924456,259.858412 356.987296,262.736605 C346.050137,265.614798 337.99117,261.585321 337.99117,261.585321 C337.99117,261.585321 328.493107,261.585321 328.493107,256.692402 C328.493107,251.799484 331.659128,251.223823 331.659128,251.223823 L341.445014,252.662925 C341.445014,252.662925 353.245636,249.496893 358.714216,253.814193 Z" id="Path" fill="#D0CDE1"></path>
                <path d="M340.557261,173.420288 C341.408228,173.878333 342.323127,174.206052 343.271382,174.392493 C344.245103,174.566787 345.229184,174.145159 345.774675,173.319962 C345.986514,172.841401 346.083876,172.320046 346.059033,171.797285 C346.093706,170.216799 345.979396,168.508222 344.977846,167.285096 C344.340437,166.506652 343.409977,166.01596 342.750179,165.256425 C342.306786,164.68742 341.929034,164.070188 341.624094,163.416449 C340.340932,161.006455 338.441039,158.690283 335.800612,157.995507 C334.684492,157.755643 333.541002,157.668219 332.40139,157.735625 L325.752071,157.829436 C324.674992,157.794751 323.598346,157.91063 322.553316,158.173716 C320.413086,158.820821 318.854783,160.620605 317.427595,162.341788 C316.319713,163.596622 315.335277,164.955254 314.487927,166.398863 C313.339018,168.541658 312.75807,170.943005 312.800458,173.374006 C312.791556,173.997482 312.872055,174.619016 313.039499,175.219653 C313.235387,175.770513 313.478083,176.303589 313.764928,176.813038 C315.011892,179.262292 315.752296,182.321575 314.347981,184.684132 C316.787424,183.687648 319.201089,182.381083 320.810316,180.294375 C321.530199,179.360875 322.094759,178.268079 323.054129,177.58306 C324.0135,176.89804 325.576722,176.838619 326.192265,177.843994 C326.403837,178.250696 326.512785,178.702951 326.509623,179.161383 C326.490297,179.918734 326.613672,180.672957 326.873307,181.384675 C327.160339,182.110202 327.912451,182.539341 328.683088,182.417298 C329.936219,182.064302 329.816216,180.141012 330.781421,179.267336 C331.514433,178.603834 332.645311,178.730673 333.587021,178.429477 C334.678271,178.014639 335.545235,177.160722 335.97657,176.075886 C336.333124,175.27616 336.327976,173.183388 337.002683,172.750309 C337.848795,172.207207 339.772967,173.070658 340.557261,173.420288 Z" id="Path" fill="#2F2E41"></path>
                <path d="M308.32492,186.106396 C308.907594,185.95093 309.52104,185.952492 310.102914,186.110923 C311.950489,186.606937 316.092261,187.920028 316.980308,189.91816 C318.131588,192.508542 322.161065,196.538019 322.161065,196.538019 C322.161065,196.538019 327.629651,202.006599 326.478371,205.74826 C325.327092,209.489921 321.009786,213.807248 321.009786,213.807248 C321.009786,213.807248 322.161065,231.652073 316.404668,236.257212 C310.648272,240.862352 308.34568,237.696314 308.34568,242.013615 C308.34568,246.330915 290.500855,259.85844 287.046995,251.511678 C287.046995,251.511678 288.77392,235.96939 288.19828,230.50081 C287.630959,225.11105 288.461513,191.483927 308.32492,186.106396 Z" id="Path" fill="#D0CDE1"></path>
                <path d="M317.555953,193.371977 C317.555953,193.371977 335.112977,206.323883 331.946956,211.792463 C331.946956,211.792463 321.297614,216.973226 318.99505,216.685381 C316.692486,216.397537 307.770068,206.323861 305.467509,205.460399 C303.16495,204.596937 302.013665,189.054676 317.555953,193.371977 Z" id="Path" fill="#D0CDE1"></path>
                <path d="M269.001911,204.978216 C266.271279,205.900386 263.797451,208.057279 263.238274,210.884653 C262.979072,212.195271 263.137991,213.557727 262.919864,214.875802 C262.413984,217.932711 260.014412,220.267284 257.801213,222.435802 C255.588015,224.604321 253.302474,227.123988 253.140946,230.218255 C252.964066,233.606582 255.421366,236.780823 254.996153,240.146995 C254.502138,244.057784 250.371539,246.591898 249.350454,250.399223 C248.668626,252.941557 249.504132,255.68011 250.878742,257.924816 C253.498202,262.202339 257.975652,265.106342 262.743796,266.663104 C267.51194,268.219866 272.590132,268.547412 277.605706,268.599963 C283.712751,268.663949 290.343402,268.139652 294.931932,264.109068 C297.552939,261.786146 299.198955,258.55829 299.539947,255.072695 C299.975854,250.403864 298.027212,245.579709 299.371342,241.087343 C300.217264,238.260106 302.338629,235.678005 302.022038,232.743997 C301.712496,229.875223 299.206932,227.84178 297.488043,225.524213 C295.883163,223.360358 294.909319,220.804966 293.954884,218.285647 L290.689229,209.665661 C290.047255,207.971117 289.342304,206.188911 287.911645,205.076712 C285.233314,202.994634 280.926669,203.403712 277.794864,203.833136 C274.889482,204.23151 271.795924,204.034638 269.001911,204.978216 Z" id="Path" fill="#2F2E41"></path>
                <path d="M270.024624,230.088186 C270.024624,230.088186 271.472279,234.793063 260.61487,240.221767 C249.757461,245.650472 261.700611,251.441095 261.700611,251.441095 L274.367588,254.336426 C274.367588,254.336426 287.396478,252.526858 288.844132,250.35537 C290.291787,248.183883 292.825188,240.945616 292.10136,239.859875 C291.559789,239.086844 290.954487,238.360483 290.291787,237.688394 C290.291787,237.688394 281.60586,236.240739 281.967774,232.259689 C282.329687,228.27864 270.024624,230.088186 270.024624,230.088186 Z" id="Path" fill="#FFB9B9"></path>
                <path d="M270.024624,230.088186 C270.024624,230.088186 271.472279,234.793063 260.61487,240.221767 C249.757461,245.650472 261.700611,251.441095 261.700611,251.441095 L274.367588,254.336426 C274.367588,254.336426 287.396478,252.526858 288.844132,250.35537 C290.291787,248.183883 292.825188,240.945616 292.10136,239.859875 C291.559789,239.086844 290.954487,238.360483 290.291787,237.688394 C290.291787,237.688394 281.60586,236.240739 281.967774,232.259689 C282.329687,228.27864 270.024624,230.088186 270.024624,230.088186 Z" id="Path" fill="#000000" opacity="0.1"></path>
                <circle id="Oval" fill="#FFB9B9" cx="277.081942" cy="225.926182" r="11.5812358"></circle>
                <path d="M275.815253,250.355349 C275.815253,250.355349 261.867728,249.335337 261.603221,239.711764 C261.603221,239.711764 256.633831,239.136026 255.186177,240.583681 C253.738522,242.031335 249.03364,243.117076 249.03364,246.736212 C249.03364,250.355349 256.995745,261.212763 256.995745,261.212763 C256.995745,261.212763 261.338708,275.689307 259.52914,278.222703 C257.719572,280.756098 257.357658,287.270543 257.357658,287.270543 C257.357658,287.270543 275.453339,285.822889 278.348648,287.270543 C281.243957,288.718198 292.825198,288.718198 293.549026,287.270543 C294.272853,285.822889 292.825198,267.727197 292.825198,267.727197 C292.825198,267.727197 296.082421,263.384233 295.358594,258.317443 L304.04451,248.183883 C304.04451,248.183883 300.787287,238.41221 295.720496,238.41221 C295.720496,238.41221 288.844154,236.602642 288.663178,237.507429 C288.482202,238.412216 292.10136,248.545781 275.815253,250.355349 Z" id="Path" fill="#FF6584"></path>
                <path d="M243.243011,282.203753 C243.243011,282.203753 246.500233,287.270543 254.824252,288.356284 C263.148271,289.442025 264.595925,286.546716 263.872093,285.822889 C263.14826,285.099061 254.462339,281.841839 254.462339,281.841839 L249.395542,277.860789 L243.243011,282.203753 Z" id="Path" fill="#FFB9B9"></path>
                <path d="M302.596855,277.860789 L293.187101,283.289493 C293.187101,283.289493 280.882033,282.565666 285.58691,286.184824 C290.291787,289.803982 298.977719,288.356306 298.977719,288.356306 L307.301732,284.375256 L302.596855,277.860789 Z" id="Path" fill="#FFB9B9"></path>
                <path d="M255.548079,287.270543 C255.548079,287.270543 246.862147,308.623452 257.357647,311.880675 C267.853148,315.137897 296.806237,314.41407 303.320682,310.071107 C309.835128,305.728143 311.644696,299.937525 310.558955,298.127957 C309.473214,296.318389 302.234942,291.251615 297.168151,290.889685 C292.10136,290.527755 255.548079,287.270543 255.548079,287.270543 Z" id="Path" fill="#2F2E41"></path>
                <path d="M255.548079,287.270543 C255.548079,287.270543 246.862147,308.623452 257.357647,311.880675 C267.853148,315.137897 296.806237,314.41407 303.320682,310.071107 C309.835128,305.728143 311.644696,299.937525 310.558955,298.127957 C309.473214,296.318389 302.234942,291.251615 297.168151,290.889685 C292.10136,290.527755 255.548079,287.270543 255.548079,287.270543 Z" id="Path" fill="#000000" opacity="0.05"></path>
                <path d="M296.548142,288.597133 C296.548142,288.597133 327.206981,277.498875 326.845068,290.889685 C326.483154,304.280494 307.301721,307.899625 307.301721,307.899625 L301.511104,308.623452 L269.6627,309.709193 C269.6627,309.709193 270.74844,303.918575 268.215045,303.194748 C268.215045,303.194748 276.539058,301.023266 276.900972,300.661353 C277.262886,300.299439 297.891967,293.061167 299.339622,292.699253 C300.787276,292.337339 305.13024,289.442025 308.387462,289.803922 C308.387462,289.803922 312.006598,286.908591 315.987648,287.63244 L304.768326,288.356268 L296.548142,288.597133 Z" id="Path" fill="#2F2E41"></path>
                <path d="M296.548142,288.597133 C296.548142,288.597133 327.206981,277.498875 326.845068,290.889685 C326.483154,304.280494 307.301721,307.899625 307.301721,307.899625 L301.511104,308.623452 L269.6627,309.709193 C269.6627,309.709193 270.74844,303.918575 268.215045,303.194748 C268.215045,303.194748 276.539058,301.023266 276.900972,300.661353 C277.262886,300.299439 297.891967,293.061167 299.339622,292.699253 C300.787276,292.337339 305.13024,289.442025 308.387462,289.803922 C308.387462,289.803922 312.006598,286.908591 315.987648,287.63244 L304.768326,288.356268 L296.548142,288.597133 Z" id="Path" fill="#000000" opacity="0.1"></path>
                <polygon id="Path" fill="#2F2E41" points="291.131362 290.394319 294.996887 299.213774 318.521245 290.889494 320.330895 286.185058 314.177977 285.098833 301.808949 287.270739 296.44428 288.718132"></polygon>
                <polygon id="Path" fill="#000000" opacity="0.1" points="291.131362 290.394319 294.996887 299.213774 318.521245 290.889494 320.330895 286.185058 314.177977 285.098833 301.808949 287.270739 296.44428 288.718132"></polygon>
                <path d="M241.071529,301.023261 C241.071529,301.023261 247.947872,309.709188 255.909993,311.880669 C263.872114,314.052151 268.215056,311.156842 268.215056,311.156842 L265.681661,301.023261 L264.59592,294.508816 L259.891043,291.251588 L250.481283,286.908619 L239.261961,283.289482 C239.261961,283.289482 234.557084,282.565655 234.557084,283.289482 C234.557084,284.01331 238.900047,294.870724 238.900047,294.870724 L241.071529,301.023261 Z" id="Path" fill="#2F2E41"></path>
                <path d="M249.395564,305.728143 C249.395564,305.728143 250.843219,316.223638 252.652792,316.947465 C254.462366,317.671293 259.891065,316.223638 261.338719,315.499811 C262.786374,314.775984 267.707107,311.436439 267.707107,311.436439 C267.707107,311.436439 250.481283,305.004316 249.395564,305.728143 Z" id="Path" fill="#F2F2F2"></path>
                <polygon id="Path" fill="#FFB9B9" points="282.329883 306.814086 289.206226 307.899767 288.482257 316.223502 278.890895 313.894163"></polygon>
                <path d="M286.638108,309.130486 C286.638108,309.130486 283.415428,312.966416 286.672651,315.137897 L288.844132,316.947465 C288.844132,316.947465 296.08241,318.39512 296.806237,319.118947 C297.530065,319.842774 300.425374,318.033206 300.425374,318.033206 C300.425374,318.033206 300.787287,307.175798 300.425374,306.45197 C300.06346,305.728143 295.720496,305.004316 295.358583,305.728143 C294.996669,306.45197 290.6537,307.537711 288.120305,306.813884 L286.638108,309.130486 Z" id="Path" fill="#F2F2F2"></path>
                <path d="M257.719561,289.803939 C257.719561,289.803939 232.385602,274.96548 228.404542,280.394184 C224.423481,285.822889 220.080528,293.42308 231.661764,299.213698 C243.243,305.004316 279.434367,316.947465 279.434367,316.947465 C279.434367,316.947465 284.863072,308.623452 284.863072,306.45197 C284.863072,306.45197 265.68165,297.766044 262.424427,297.042216 C259.167205,296.318389 246.138309,287.99437 244.328741,287.270543 C242.519173,286.546716 239.985777,284.375212 239.985777,284.375212 L257.719561,289.803939 Z" id="Path" fill="#2F2E41"></path>
                <path d="M250.481283,244.926644 L249.033629,246.012385 C249.033629,246.012385 245.776406,254.336404 245.414493,259.041281 C245.052579,263.746158 240.709616,278.222703 241.071529,280.032271 C241.433443,281.841839 241.795356,283.289493 243.96686,285.099061 C243.96686,285.099061 246.862191,278.584616 251.928965,279.670357 L258.081496,257.231713 L250.481283,244.926644 Z" id="Path" fill="#FF6584"></path>
                <path d="M301.149201,244.926644 L304.044532,248.183867 C304.044532,248.183867 305.8541,252.526836 305.8541,253.612577 C305.8541,254.698318 309.473236,270.622517 309.835149,271.346344 C310.197063,272.070171 311.644718,281.118017 309.835149,283.289493 C308.025581,285.46097 304.768359,286.90863 304.768359,286.90863 C304.768359,286.90863 306.93984,279.308444 300.063482,278.94653 L300.787309,276.051199 L294.272864,254.336382 L301.149201,244.926644 Z" id="Path" fill="#FF6584"></path>
                <path d="M251.205116,269.84391 L251.205116,288.907279 C251.205112,291.412034 253.215936,293.452869 255.720416,293.48997 L295.587791,294.080601 C298.076557,294.11747 300.139829,292.161255 300.235491,289.674054 L300.968781,270.608451 C301.016229,269.374795 300.563975,268.174167 299.714412,267.278398 C298.864849,266.382629 297.689832,265.867482 296.455393,265.84959 L255.854723,265.261176 C254.627798,265.243393 253.444979,265.718339 252.571059,266.57969 C251.697138,267.441041 251.205108,268.616855 251.205116,269.84391 Z" id="Path" fill="#3F3D56"></path>
                <ellipse id="Oval" fill="#2F2E41" cx="277.761149" cy="218.842335" rx="12.4660576" ry="6.71249339"></ellipse>
                <circle id="Oval" fill="#F2F2F2" cx="275.634288" cy="279.851317" r="2.89530895"></circle>
            </g>
        </g>
    </g>
</svg>